<svg width="50" height="50" viewBox="0 0 50 50" fill="none" xmlns="http://www.w3.org/2000/svg">
<g clip-path="url(#clip0_2409_135)">
<path d="M12.5083 32.275V37.4917L0 24.9833L2.62083 22.3812L12.5083 32.275ZM17.725 37.4917H12.5083L25.0167 50L27.6271 47.3896L17.725 37.4917ZM47.3917 27.6021L50 24.9937L25.0062 0L22.3958 2.60625L32.2729 12.5H26.3042L19.4104 5.60833L16.8021 8.21667L21.0937 12.5083H18.1062V31.9042H37.5V28.9208L41.7917 33.2125L44.4 30.6042L37.5 23.6875V17.7208L47.3917 27.6021ZM13.8125 11.1917L11.2083 13.8021L14.0042 16.6L16.6104 13.9896L13.8125 11.1917ZM36.0104 33.3896L33.4125 35.9958L36.2083 38.7937L38.8187 36.1875L36.0104 33.3896ZM8.21667 16.7896L5.60833 19.3958L12.5083 26.3V21.0792L8.21667 16.7896ZM28.9167 37.4917H23.7L30.6042 44.3917L33.2083 41.7833L28.9167 37.4917Z" fill="#FF6364"/>
</g>
<defs>
<clipPath id="clip0_2409_135">
<rect width="50" height="50" fill="white"/>
</clipPath>
</defs>
</svg>
