<svg width="50" height="50" viewBox="0 0 50 50" fill="none" xmlns="http://www.w3.org/2000/svg">
<rect width="33" height="33" transform="translate(8.6875 9.6875)" fill="white"/>
<path d="M18.2487 0H31.7513C34.5513 0 36.7718 -2.00593e-07 38.559 0.146154C40.3897 0.294872 41.9359 0.607692 43.3513 1.32564C45.6427 2.49447 47.5052 4.35877 48.6718 6.65128C49.3923 8.06154 49.7051 9.61026 49.8538 11.441C50 13.2282 50 15.4487 50 18.2487V31.7513C50 34.5513 50 36.7718 49.8538 38.559C49.7051 40.3897 49.3923 41.9359 48.6744 43.3513C47.5062 45.6423 45.6428 47.5047 43.3513 48.6718C41.9359 49.3923 40.3897 49.7051 38.559 49.8538C36.7718 50 34.5513 50 31.7513 50H18.2487C15.4487 50 13.2282 50 11.441 49.8538C9.61026 49.7051 8.0641 49.3923 6.65128 48.6744C4.35933 47.5066 2.49593 45.6432 1.3282 43.3513C0.607692 41.9359 0.294872 40.3897 0.146154 38.559C-2.00593e-07 36.7718 0 34.5513 0 31.7513V18.2487C0 15.4487 -2.00593e-07 13.2282 0.146154 11.441C0.294872 9.61026 0.607692 8.0641 1.32564 6.65128C2.49404 4.35894 4.35838 2.4955 6.65128 1.3282C8.06154 0.607692 9.61026 0.294872 11.441 0.146154C13.2282 -2.00593e-07 15.4487 0 18.2487 0ZM16.1026 15.9487C15.738 15.609 15.2558 15.4241 14.7576 15.4329C14.2594 15.4417 13.7841 15.6435 13.4317 15.9958C13.0794 16.3482 12.8776 16.8235 12.8688 17.3217C12.86 17.8199 13.0449 18.3021 13.3846 18.6667L19.7179 25L13.3846 31.3333C13.1957 31.5094 13.0441 31.7217 12.939 31.9576C12.8339 32.1935 12.7774 32.4481 12.7728 32.7064C12.7683 32.9646 12.8158 33.2211 12.9125 33.4605C13.0092 33.7 13.1532 33.9175 13.3358 34.1001C13.5184 34.2827 13.7359 34.4267 13.9754 34.5234C14.2148 34.6201 14.4713 34.6676 14.7295 34.6631C14.9878 34.6585 15.2424 34.602 15.4783 34.4969C15.7142 34.3918 15.9265 34.2402 16.1026 34.0513L23.7949 26.359C24.155 25.9984 24.3573 25.5096 24.3573 25C24.3573 24.4904 24.155 24.0016 23.7949 23.641L16.1026 15.9487ZM27.5641 30.7692C27.0541 30.7692 26.5649 30.9718 26.2043 31.3325C25.8436 31.6931 25.641 32.1823 25.641 32.6923C25.641 33.2023 25.8436 33.6915 26.2043 34.0521C26.5649 34.4128 27.0541 34.6154 27.5641 34.6154H35.2564C35.7664 34.6154 36.2556 34.4128 36.6162 34.0521C36.9769 33.6915 37.1795 33.2023 37.1795 32.6923C37.1795 32.1823 36.9769 31.6931 36.6162 31.3325C36.2556 30.9718 35.7664 30.7692 35.2564 30.7692H27.5641Z" fill="black"/>
</svg>
