<svg width="50" height="50" viewBox="0 0 50 50" fill="none" xmlns="http://www.w3.org/2000/svg">
<g clip-path="url(#clip0_2414_137)">
<path d="M22.0046 22.8354L8.21355 11.2077C7.65026 10.7382 6.99008 10.398 6.27991 10.2112C5.56973 10.0245 4.82699 9.99577 4.10443 10.1272C3.38187 10.2586 2.69722 10.5469 2.09912 10.9716C1.50102 11.3963 1.00414 11.9469 0.643766 12.5845C0.283394 13.222 0.0683751 13.9307 0.0139815 14.6604C-0.0404122 15.39 0.0671543 16.1226 0.32904 16.8062C0.590927 17.4897 1.00071 18.1075 1.52928 18.6155C2.05784 19.1235 2.69223 19.5094 3.38738 19.7457H3.43758L3.56765 19.7856L20.9639 25.0645C21.0901 25.1101 21.2233 25.1337 21.3575 25.1344C21.628 25.1329 21.8906 25.0437 22.1056 24.8803C22.3206 24.7168 22.4763 24.488 22.5491 24.2285C22.6218 23.969 22.6077 23.693 22.5089 23.4422C22.41 23.1914 22.2318 22.9795 22.0012 22.8387L22.0046 22.8354Z" fill="url(#paint0_linear_2414_137)"/>
<path d="M24.7696 3.63969C24.7735 2.98568 24.5994 2.34282 24.2658 1.77951C23.9322 1.21619 23.4516 0.753489 22.875 0.440614C22.2984 0.127739 21.6475 -0.0236056 20.9914 0.00267963C20.3354 0.0289648 19.6987 0.231896 19.1493 0.589888L2.30687 10.7759C1.73412 11.1477 1.24394 11.6324 0.866587 12.2002C0.489234 12.7681 0.232719 13.4069 0.112874 14.0773C-0.00697079 14.7478 0.0123981 15.4355 0.169785 16.0982C0.327172 16.7609 0.619238 17.3844 1.02795 17.9303C1.43667 18.4761 1.95336 18.9327 2.54614 19.272C3.13891 19.6112 3.79519 19.8258 4.47447 19.9025C5.15374 19.9792 5.84159 19.9164 6.49557 19.7181C7.14954 19.5197 7.75576 19.1899 8.27679 18.749L23.3752 6.49339L23.4953 6.39359C23.8944 6.05306 24.2148 5.63066 24.4347 5.15531C24.6546 4.67996 24.7687 4.16289 24.7694 3.6395" fill="url(#paint1_linear_2414_137)"/>
<path d="M49.2628 25.5894L23.7087 1.07505C23.3627 0.729033 22.9501 0.45623 22.4957 0.273021C22.0412 0.0898125 21.5543 -2.37714e-05 21.0641 0.00890693C20.5739 0.0178376 20.0906 0.125351 19.6431 0.324992C19.1957 0.524632 18.7934 0.812282 18.4603 1.17067C18.1273 1.52906 17.8704 1.95079 17.7051 2.41054C17.5397 2.8703 17.4694 3.35859 17.4982 3.84611C17.5271 4.33362 17.6546 4.8103 17.873 5.24752C18.0914 5.68475 18.3962 6.07349 18.7693 6.39042L18.8159 6.4303L45.9644 29.214C46.3226 29.5133 46.7592 29.7044 47.2227 29.765C47.6863 29.8256 48.1576 29.753 48.5812 29.5558C49.0047 29.3586 49.363 29.0451 49.6137 28.652C49.8645 28.2589 49.9973 27.8026 49.9966 27.3369C49.9965 27.0118 49.9317 26.6898 49.8057 26.3899C49.6797 26.0899 49.4952 25.8178 49.2628 25.5894Z" fill="url(#paint2_linear_2414_137)"/>
<path d="M50.0001 27.3471C50.0034 26.8953 49.8807 26.4515 49.6458 26.065C49.4109 25.6784 49.073 25.3644 48.6696 25.1578C48.2662 24.9512 47.8132 24.8602 47.3609 24.8947C46.9087 24.9293 46.4749 25.0882 46.1079 25.3537L15.1874 40.4034C14.5706 40.7118 14.0246 41.144 13.5836 41.6729C13.1426 42.2017 12.8163 42.8157 12.6251 43.4763C12.4338 44.1368 12.3819 44.8297 12.4725 45.5112C12.5631 46.1927 12.7943 46.8482 13.1515 47.4364C13.5087 48.0247 13.9842 48.5329 14.5482 48.9292C15.1121 49.3255 15.7523 49.6013 16.4284 49.7392C17.1046 49.8771 17.802 49.8742 18.477 49.7306C19.1519 49.587 19.7897 49.3059 20.3503 48.9049L48.9429 29.357C49.2693 29.1323 49.536 28.8319 49.7201 28.4819C49.9043 28.1318 50.0004 27.7424 50.0001 27.3471Z" fill="url(#paint3_linear_2414_137)"/>
<path d="M14.8137 14.9586H34.8249V34.8917H14.8137V14.9586Z" fill="black"/>
<path d="M16.9917 31.1543H24.4958V32.4H16.9919L16.9917 31.1543ZM16.6782 20.0978L17.2353 19.5729C17.2882 19.6563 17.3603 19.7259 17.4455 19.7762C17.5307 19.8264 17.6267 19.8558 17.7255 19.862C17.939 19.862 18.079 19.7126 18.079 19.4235V17.4568H18.9396V19.4301C18.9525 19.589 18.9318 19.7489 18.879 19.8994C18.8261 20.0498 18.7423 20.1876 18.6327 20.3039C18.4225 20.5086 18.1428 20.6273 17.8489 20.6362H17.7755C17.5749 20.6442 17.3753 20.6051 17.1927 20.5222C17.0101 20.4393 16.8496 20.3148 16.7241 20.1587L16.6782 20.0978ZM19.3263 17.4568H21.8378V18.1844H20.1702V18.6595H21.6677V19.3239H20.1835V19.8189H21.8511V20.5498H19.3165L19.3263 17.4568ZM23.0618 18.2109H22.1278V17.4568H24.8661V18.2109H23.929V20.5663H23.0618V18.2109ZM17.0251 21.7957H18.4993C18.6523 21.7832 18.8063 21.8012 18.9523 21.8486C19.0983 21.8959 19.2334 21.9717 19.3497 22.0716C19.416 22.1378 19.4682 22.2166 19.5032 22.3033C19.5381 22.3901 19.5552 22.483 19.5532 22.5764C19.5558 22.7281 19.5106 22.8767 19.4238 23.0013C19.337 23.126 19.2131 23.2203 19.0696 23.271C19.2471 23.3034 19.407 23.3978 19.5208 23.5373C19.6345 23.6767 19.6945 23.8521 19.6899 24.0317C19.6899 24.593 19.253 24.9253 18.506 24.9253H17.0251V21.7957ZM18.6927 22.7558C18.6927 22.5831 18.5526 22.4901 18.2991 22.4901H17.8688V23.0348H18.2858C18.546 23.0348 18.6993 22.9453 18.6993 22.7659L18.6927 22.7558ZM18.3925 23.6397H17.869V24.2144H18.4093C18.6761 24.2144 18.8228 24.1113 18.8228 23.9286C18.8165 23.7644 18.7056 23.6548 18.455 23.641L18.3925 23.6397ZM21.7478 24.9253L21.1173 23.9817H20.8272V24.9253H19.9601L19.9667 21.7957H21.3509C21.5341 21.7809 21.7184 21.8026 21.8931 21.8597C22.0678 21.9167 22.2293 22.008 22.3681 22.128C22.5408 22.3041 22.6401 22.539 22.6458 22.7852L22.6448 22.8523C22.6509 23.0591 22.5922 23.2627 22.4769 23.4347C22.3616 23.6068 22.1954 23.7388 22.0013 23.8124L22.6106 24.7202L23.8489 21.7725H24.6827L26.0167 24.9087H25.0862L24.8628 24.3473H23.6521L23.4286 24.9253H21.7478ZM24.2591 22.7957L23.9056 23.676H24.6093L24.2591 22.7957ZM21.2974 22.5434H20.8339V23.2974L21.3007 23.2908C21.5909 23.2908 21.7677 23.1478 21.7677 22.9187C21.7677 22.6696 21.5843 22.5434 21.2974 22.5434ZM26.1534 21.7856H27.0206V24.8984H26.1534V21.7856ZM27.3409 21.7856H28.1546L29.2786 23.4467V21.7856H30.1356V24.8984H29.3786L28.2013 23.1908V24.8984H27.3407L27.3409 21.7856ZM30.2792 24.4367L30.7593 23.862C31.0406 24.0963 31.3933 24.2287 31.7599 24.2375C31.9968 24.2375 32.1202 24.1543 32.1202 24.0216C32.1202 23.9212 32.0657 23.8585 31.8651 23.7928L31.7698 23.7642L31.7151 23.7496L31.5897 23.719L31.5214 23.7033L31.3882 23.6702L31.2606 23.6356C30.762 23.4906 30.4126 23.2764 30.4126 22.7457C30.4126 22.1677 30.8728 21.749 31.6231 21.749C32.087 21.7317 32.542 21.8789 32.9071 22.1644L32.4903 22.7558C32.238 22.566 31.9326 22.4591 31.6165 22.45C31.4064 22.45 31.303 22.5331 31.303 22.6494C31.303 22.7546 31.361 22.8167 31.5663 22.8805L31.6636 22.9081C31.6813 22.9128 31.6999 22.9175 31.7194 22.9222L31.8466 22.9517C32.5638 23.1078 33.0073 23.3404 33.0073 23.9218C33.0073 24.5352 32.5366 24.8939 31.8214 24.9173L31.7466 24.9185C31.2491 24.9396 30.7592 24.791 30.3579 24.4973L30.2792 24.4367Z" fill="white"/>
</g>
<defs>
<linearGradient id="paint0_linear_2414_137" x1="568.867" y1="663.503" x2="2062.45" y2="1392.73" gradientUnits="userSpaceOnUse">
<stop offset="0.21" stop-color="#FE2857"/>
<stop offset="1" stop-color="#293896"/>
</linearGradient>
<linearGradient id="paint1_linear_2414_137" x1="56.38" y1="1537.94" x2="1969.99" y2="113.158" gradientUnits="userSpaceOnUse">
<stop stop-color="#FE2857"/>
<stop offset="0.01" stop-color="#FE2857"/>
<stop offset="0.86" stop-color="#FF318C"/>
</linearGradient>
<linearGradient id="paint2_linear_2414_137" x1="222.239" y1="414.451" x2="2884.35" y2="2841.15" gradientUnits="userSpaceOnUse">
<stop offset="0.02" stop-color="#FF318C"/>
<stop offset="0.21" stop-color="#FE2857"/>
<stop offset="0.86" stop-color="#FDB60D"/>
</linearGradient>
<linearGradient id="paint3_linear_2414_137" x1="3434.66" y1="716.608" x2="691.131" y2="2612.44" gradientUnits="userSpaceOnUse">
<stop offset="0.01" stop-color="#FDB60D"/>
<stop offset="0.86" stop-color="#FCF84A"/>
</linearGradient>
<clipPath id="clip0_2414_137">
<rect width="50" height="50" fill="white"/>
</clipPath>
</defs>
</svg>
