<svg width="50" height="50" viewBox="0 0 50 50" fill="none" xmlns="http://www.w3.org/2000/svg">
<path d="M25.18 2.78748L3.33154 24.6769L25.1202 46.5121L47.0284 24.6226L25.18 2.78748Z" fill="#019833"/>
<path d="M25.1204 46.5668L3.27197 24.6774L3.33174 24.6231L25.2399 2.67896L47.0884 24.5684L47.0286 24.6227L25.1204 46.5668ZM3.3915 24.6774L25.1204 46.4583L46.9688 24.6231L25.2399 2.84224L3.3915 24.6774Z" fill="black"/>
<path d="M25.1202 2.84177V0.935913L1.29639 24.7859H3.33154L25.1202 2.84177Z" fill="#66FE98"/>
<path d="M3.33159 24.786H1.17651L1.23628 24.7317L25.1199 0.827393V2.84224L3.3312 24.7864L3.33159 24.786ZM1.41597 24.7317H3.27144L25.0601 2.84224V1.04536L1.41597 24.7317Z" fill="black"/>
<path d="M25.0601 2.84177V0.935913L48.8839 24.7859H46.8487L25.0601 2.84177Z" fill="#45FE02"/>
<path d="M48.9442 24.7859H46.7892L25.0005 2.89644V0.881592L25.0603 0.935889L48.9442 24.7859ZM46.8493 24.7316H48.7048L25.1204 1.04487V2.84175L46.8493 24.7316Z" fill="black"/>
<path d="M25.1202 46.6211V48.527L1.29639 24.7317H3.33154L25.1202 46.6211Z" fill="#017D17"/>
<path d="M25.1204 48.636L25.0606 48.5817L1.177 24.6774H3.33208L25.1208 46.6215V48.6364L25.1204 48.636ZM1.41606 24.7317L25.0602 48.4184V46.6215L3.27153 24.7321L1.41606 24.7317Z" fill="black"/>
<path d="M13.0887 44.0075H8.47974L6.68403 42.9727V8.8313H5.24731L4.05005 7.63325V3.87622L5.30708 2.51489H21.409L22.8458 3.9852V7.52466L21.6485 8.99497H20.4512V20.3211L31.8844 8.99497H31.2258L29.909 7.57935V3.82231L31.2258 2.62427H47.4477L48.7047 3.9313V7.47075L13.0887 44.0075ZM8.95864 42.2649H12.3708L47.029 6.70786V4.58442L46.7895 4.31216H31.8848L31.6454 4.53013V6.81724L32.0043 7.19849H36.1344L18.7157 24.4051V7.19849H20.8708L21.17 6.87192V4.6938L20.7508 4.25825H6.08521L5.78599 4.58481V6.92622L5.96567 7.14419H8.47974V41.9387L8.95864 42.2649Z" fill="black"/>
<path d="M25.0601 46.6211V48.527L48.8839 24.677H46.8487L25.0601 46.6211Z" fill="#005D04"/>
<path d="M25.0005 48.636V46.6211L46.7892 24.677H48.9442L48.8845 24.7313L25.0005 48.636ZM25.12 46.6211V48.418L48.7642 24.7313H46.9087L25.12 46.6211Z" fill="black"/>
<path d="M24.9406 48.8535L0.757812 24.6769L25.0008 0.391357L49.1836 24.5679L24.9406 48.8535ZM1.53594 24.6769L24.9406 48.1457L48.4652 24.6226L25.0605 1.15386L1.53594 24.6769Z" fill="black"/>
<path d="M21.2293 4.80237L22.0672 4.36682L21.1691 3.49573H5.72539L4.94727 4.25823V7.25315L5.84531 8.12424L6.26445 7.25315L5.72578 6.70862V4.58518L6.14492 4.20393H20.9301L21.2293 4.80237Z" fill="#FEFEFE"/>
<path d="M5.84575 8.17817L4.88794 7.25239V4.25747L5.72583 3.44067H21.2293L22.1872 4.36646L21.2293 4.85669L20.8704 4.25786H6.08521L5.72622 4.58442V6.65357L6.26489 7.1981L5.84575 8.17817ZM5.00786 7.1981L5.84575 8.01489L6.20474 7.25239L5.66606 6.70786V4.58442L6.08521 4.20317H20.8704L21.2293 4.802L22.0075 4.36646L21.1696 3.54966H5.72583L4.94771 4.31216V7.1981H5.00786Z" fill="black"/>
<path d="M12.011 42.5371H9.07778L8.59888 42.0469V7.25234H6.08481L5.54614 6.76211V4.63867L6.02505 4.14844H20.6907L21.2293 4.58398V6.65313L20.6309 7.25195H17.8774V25.9832L34.518 9.10313V7.25195H32.004L31.5251 6.76172V4.69258L32.1235 4.09375H46.5497L47.1481 4.69258V6.32617L12.011 42.5367V42.5371ZM9.13794 42.4828H12.011L47.0286 6.27227V4.69297L46.4899 4.14844H32.1836L31.645 4.69297V6.65313L32.1239 7.08867H34.6977V9.10352L17.8774 26.2016V7.14336H20.6907L21.2293 6.59883V4.58398L20.7504 4.20273H6.08481L5.60591 4.63828V6.65313L6.08481 7.08867H8.65864V41.9379L9.13755 42.4824L9.13794 42.4828Z" fill="black"/>
<path d="M8.59932 7.1438V41.993L9.07822 42.4833L8.71924 43.1368L7.70166 42.1567V8.06997L8.59932 7.1438Z" fill="#FEFEFE"/>
<path d="M8.7187 43.2997L7.64136 42.2649V8.06919L8.65894 7.08911V42.0473L9.13784 42.5918L8.7187 43.2997ZM7.76089 42.2106L8.7187 43.1364L9.01792 42.5375L8.59878 42.0473V7.25278L7.76089 8.06958V42.2106Z" fill="black"/>
<path d="M6.14497 7.1438L5.90552 7.9606H7.76099L8.77856 7.1438H6.14497Z" fill="#808080"/>
<path d="M7.76084 8.06909H5.84521L6.14443 7.14331H8.95771L7.76084 8.06909ZM5.90537 7.96011H7.70107L8.59912 7.19761H6.08506L5.90537 7.96011Z" fill="black"/>
<path d="M31.8243 8.12385L32.2435 7.25276L31.645 6.70823V4.85706L32.3036 4.14924H46.5501L47.0888 4.85706L47.8669 4.31252L47.0888 3.49573H31.7649L30.9868 4.25823V7.25315L31.8247 8.12424M19.3739 22.4449L17.8774 26.0387L34.6978 9.15862V7.14377L19.3739 22.4449Z" fill="#FEFEFE"/>
<path d="M17.9372 26.1473L17.8774 26.093L19.3739 22.4446L34.7575 7.08911V9.21255L17.9372 26.1473ZM19.4337 22.4989L18.0571 25.9293L34.6978 9.21255V7.30669L19.4337 22.4989ZM31.8243 8.12349L31.7646 8.06919L30.9864 7.30669V4.25747L31.7646 3.44067H47.1481L47.986 4.36646L47.1481 4.96528L46.6095 4.20278H32.3032L31.6446 4.8563V6.70747L32.2431 7.252L31.8239 8.1231L31.8243 8.12349ZM31.0462 7.30669L31.8243 8.0145L32.1833 7.252L31.5849 6.70747V4.80161L32.3032 4.0938H46.6095L47.1481 4.80161L47.8665 4.31138L47.0884 3.54888H31.7646L31.0462 4.31138V7.30669Z" fill="black"/>
<path d="M21.1696 4.69336L21.888 4.20312V7.14336L21.0501 8.01445H19.3739V22.4988L17.8774 26.0926V7.14336H20.631L21.1696 6.70781V4.69297V4.69336Z" fill="#808080"/>
<path d="M17.9372 26.093H17.8774V7.14375H20.6907L21.1696 6.7625V4.74766L22.0075 4.20312V7.25234L21.1095 8.12344H19.4935V22.5531L17.9372 26.093ZM17.9372 7.19805V25.875L19.3739 22.4988V7.96016H21.0501L21.888 7.14336V4.31172L21.2294 4.74727V6.76211L20.6907 7.19766L17.9372 7.19805Z" fill="black"/>
<path d="M32.1835 4.1488L31.6449 4.69333V6.70818L32.1238 7.19841H34.6378V9.15857L17.8773 26.0929V7.19802H20.6308L21.2292 6.65349V4.63865L20.6906 4.2574H6.08511L5.6062 4.74763V6.81677L6.08511 7.30701H8.65894V42.1015L9.13784 42.5918H12.0109L47.0882 6.38123V4.80193L46.5496 4.2574H32.1835V4.1488Z" fill="#CCCCCC"/>
<path d="M12.011 42.5371H9.07778L8.59888 42.0469V7.25234H6.08481L5.54614 6.76211V4.63867L6.02505 4.14844H20.6907L21.2293 4.58398V6.65313L20.6309 7.25195H17.8774V25.9832L34.518 9.10313V7.25195H32.004L31.5251 6.76172V4.69258L32.1235 4.09375H46.5497L47.1481 4.69258V6.32617L12.011 42.5367V42.5371ZM9.13794 42.4828H12.011L47.0286 6.27227V4.69297L46.4899 4.14844H32.1836L31.645 4.69297V6.65313L32.1239 7.08867H34.6977V9.10352L17.8774 26.2016V7.14336H20.6907L21.2293 6.59883V4.58398L20.7504 4.20273H6.08481L5.60591 4.63828V6.65313L6.08481 7.08867H8.65864V41.9379L9.13755 42.4824L9.13794 42.4828Z" fill="black"/>
<path d="M47.1484 4.74768L47.9265 4.31213V7.08909L12.6097 43.2449H8.83862L9.19761 42.5371H12.0707L47.0882 6.32659L47.148 4.74729L47.1484 4.74768Z" fill="#808080"/>
<path d="M12.6097 43.2996H8.77881L9.19795 42.4828H12.071L47.0284 6.32698L47.0882 4.74768L47.9261 4.25745V7.19768L12.6097 43.2996ZM8.89834 43.1906H12.5499L47.8667 7.08909V4.36643L47.1483 4.74768L47.0886 6.32698L12.071 42.5918H9.19795L8.89834 43.1906Z" fill="black"/>
<path d="M34.638 7.198L33.8599 8.01479H31.8247L32.3036 7.198H34.638Z" fill="#808080"/>
<path d="M33.8597 8.06909H31.7046L32.2433 7.14331H34.7573L33.8597 8.06909ZM31.8843 8.01479H33.8597L34.578 7.25229H32.3632L31.8843 8.01479Z" fill="black"/>
<path d="M26.2575 27.5629C26.2575 27.5629 26.1978 27.5629 26.1978 27.6172L25.5392 28.216L25.4794 28.2703L24.8208 30.1761C24.8208 30.2304 24.8208 30.2851 24.8806 30.3394L25.4192 30.884C25.479 30.9383 25.479 30.9383 25.5388 30.9383H27.6337C27.6935 30.9383 27.6935 30.9383 27.7532 30.884L28.2919 30.3394L28.3517 30.2851L28.9501 28.2703C28.9501 28.216 28.9501 28.1613 28.8903 28.107L28.4114 27.6715C28.3517 27.6172 28.3517 27.6172 28.2919 27.6172H26.2567V27.5629H26.2575ZM22.3665 32.9535C22.3067 32.9535 22.247 33.0078 22.247 33.0625L22.0075 34.0972C22.0075 34.2062 22.0673 34.2605 22.1271 34.3152H23.4438L20.3911 43.0273C20.3911 43.1363 20.3911 43.1906 20.5106 43.2453H25.0001C25.0599 43.2453 25.1196 43.191 25.1798 43.1363L25.479 42.2105C25.479 42.1015 25.479 42.0472 25.3595 41.9926H24.2821L27.3349 33.1715C27.3349 33.0625 27.3349 33.0082 27.2153 32.9535H22.3665ZM36.5532 33.0078C36.4935 33.0078 36.4935 33.0078 36.4935 33.0621L35.5954 34.0969H34.0989L33.1411 33.0621C33.1411 33.0078 33.0813 33.0078 33.0216 33.0078H29.4302C29.3704 33.0078 29.3106 33.0621 29.3106 33.1168L29.0114 34.0969C29.0114 34.2058 29.0114 34.2601 29.131 34.3148H30.1485L27.2153 42.9726C27.2153 43.0816 27.2153 43.1359 27.3349 43.1906H31.1657C31.2255 43.1906 31.2853 43.1363 31.2853 43.0816L31.5845 42.2648C31.5845 42.1558 31.5845 42.1015 31.4649 42.0469H30.7466L32.6021 36.166H35.954L33.7989 43.0269C33.7989 43.1359 33.7989 43.1902 33.9185 43.2449H37.5696C37.6294 43.2449 37.6892 43.1906 37.6892 43.1359L37.9884 42.3734C38.0481 42.3191 37.9884 42.2101 37.9286 42.1554H37.2103L39.1259 36.1656H42.3583L40.2032 43.0265C40.2032 43.1355 40.2032 43.1898 40.3228 43.2445H44.3333C44.3931 43.2445 44.4528 43.1902 44.4528 43.1355L44.7521 42.3187C44.7521 42.2097 44.7521 42.1554 44.6325 42.1008H43.7946L46.1892 34.314V34.1508L45.4708 33.1707C45.411 33.1164 45.411 33.1164 45.3513 33.1164H42.538C42.4782 33.1164 42.4782 33.1164 42.4185 33.1707L41.5204 34.1508H39.9642L39.0661 33.116C39.0063 33.0617 39.0063 33.0617 38.9466 33.0617H36.552V33.0074L36.5532 33.0078Z" fill="#CCCCCC"/>
<path d="M24.9407 43.6262H20.511C20.4513 43.6262 20.3915 43.6262 20.3313 43.5719C20.0321 43.4629 19.9122 43.1906 19.9724 42.9184L22.8454 34.6961H22.0075C21.7083 34.6418 21.5286 34.3148 21.6485 34.0426L21.888 33.0078C21.9477 32.7898 22.0677 32.6813 22.3071 32.6266H27.0958C27.1556 32.6266 27.2153 32.6266 27.2755 32.6809C27.5747 32.7898 27.6946 33.0621 27.6345 33.3344L24.7614 41.6656H25.42C25.7192 41.7746 25.8391 42.0469 25.779 42.3191L25.4798 43.2449C25.3602 43.4629 25.1802 43.6262 24.9407 43.6262ZM23.3845 33.9336H23.9231L20.8106 42.8637H24.8212L25.0009 42.3734H23.7438L26.8563 33.3344H22.6661L22.4864 33.9332L23.3845 33.9336ZM44.2751 43.5172H40.1446C39.8454 43.4082 39.7255 43.1359 39.7856 42.8637L41.8208 36.493H39.3665L37.6903 41.7203H37.8098C37.8696 41.7203 37.9294 41.7203 37.9895 41.7746C38.2888 41.8836 38.4087 42.2102 38.2888 42.4824L37.9895 43.2449C37.9298 43.4629 37.6903 43.5715 37.5106 43.5715H33.7395C33.4403 43.4625 33.3204 43.1902 33.3806 42.918L35.4157 36.4926H32.7817L31.1657 41.6109H31.2852C31.345 41.6109 31.4048 41.6109 31.4649 41.6652C31.7641 41.7742 31.8841 42.0465 31.8239 42.3187L31.5247 43.1898C31.4649 43.4078 31.2255 43.5164 31.0458 43.5711H27.2747C27.2149 43.5711 27.1552 43.5711 27.095 43.5168C26.7958 43.4078 26.6759 43.1355 26.736 42.8633L29.4895 34.6953H29.0704C29.0106 34.6953 28.9509 34.6953 28.8907 34.641C28.5915 34.532 28.4716 34.2598 28.5317 33.9875L28.8309 33.0074C28.8907 32.7895 29.1302 32.6262 29.3098 32.6262H32.8415C32.961 32.6262 33.1407 32.6805 33.2005 32.7895L34.0985 33.7152H35.236L36.0739 32.7895C36.1337 32.6805 36.2536 32.6262 36.3731 32.6262H38.7673C38.8868 32.6262 39.0665 32.6805 39.1263 32.7895L39.9641 33.6605H41.2212L41.9993 32.7895C42.1191 32.6806 42.2388 32.6262 42.3583 32.6262H45.1716C45.3513 32.6262 45.4708 32.6805 45.5907 32.8441L46.3091 33.8242C46.4286 33.9332 46.4286 34.1508 46.3688 34.3145L44.154 41.6109H44.4532C44.513 41.6109 44.5727 41.6109 44.6329 41.6652C44.9321 41.7742 45.052 42.0465 44.9321 42.3187L44.6329 43.1898C44.6927 43.3531 44.5134 43.5164 44.2739 43.5164L44.2751 43.5172ZM30.0884 33.9336H30.627L27.6341 42.7547H30.9263L31.0458 42.3191H30.2079L32.3028 35.6762H36.4329L34.2181 42.7551H37.3907L37.5102 42.4285H36.6723L38.8274 35.7309H42.838L40.6231 42.8098H44.1548L44.3345 42.3742H43.3766L45.8907 34.2063L45.2923 33.3895H42.6583L41.7005 34.4242H39.7848L38.827 33.3352H36.7321L35.7743 34.4242H33.9786L32.961 33.3352H29.6688L29.4891 33.8797H30.0876L30.0884 33.9336ZM27.5145 31.2656H25.4196C25.3001 31.2656 25.1204 31.2113 25.0606 31.1023L24.522 30.5578C24.4024 30.3945 24.3423 30.1766 24.4024 30.0133L25.061 28.1074C25.061 27.9984 25.1208 27.9441 25.1806 27.8895L25.8391 27.2906C25.8989 27.2363 25.9587 27.1816 26.0786 27.1816H28.1138C28.2335 27.1816 28.3532 27.2361 28.4727 27.3449L28.9516 27.7805C29.0712 27.8895 29.1313 28.107 29.0712 28.325L28.4727 30.3398C28.4727 30.4488 28.413 30.5031 28.3532 30.5578L27.8145 31.1023C27.8145 31.2113 27.6349 31.2656 27.5153 31.2656H27.5145ZM25.1802 30.1766L25.5391 30.5578H27.4548L27.8739 30.1223L28.4126 28.2711L28.1134 27.9988H26.3177L25.7192 28.4891L25.1806 30.177L25.1802 30.1766Z" fill="black"/>
<path d="M26.2573 27.7266L25.5987 28.3254L24.9401 30.2312L25.4788 30.7758H27.5737L28.1124 30.2312L28.7108 28.2164L28.2319 27.7809H26.2565L26.2573 27.7266ZM22.4265 33.1172L22.187 34.152H23.6237L20.5112 43.082H24.9409L25.2401 42.1562H24.0429L27.1554 33.1172H22.4265ZM36.553 33.1172L35.5952 34.2062H33.9792L32.9616 33.1172H29.43L29.1308 34.0973H30.2683L27.2753 42.9184H31.0464L31.3456 42.1016H30.4476L32.4229 35.9484H36.1343L33.9194 42.9727H37.5108L37.8101 42.2102H36.912L38.8874 35.8937H42.419L40.2042 42.9727H44.155L44.4542 42.1559H43.4366L45.8909 34.2059L45.1726 33.2258H42.3593L41.4015 34.2605H39.6655L38.7077 33.1715H36.5526L36.553 33.1172Z" fill="#CCCCCC"/>
<path d="M25.0004 43.1363H20.4512L23.5637 34.2062H22.127L22.4262 33.0629H27.2148L24.0422 42.1019H25.2395L25 43.1367L25.0004 43.1363ZM20.5707 43.0273H24.9402L25.1797 42.1562H23.9824L27.0352 33.1718H22.4859L22.2465 34.0976H23.6832L20.5707 43.0273ZM44.3348 43.0273H40.2645L42.4793 35.9484H39.0074L37.032 42.1558H37.9301L37.5711 43.0269H33.8598L36.0746 36.0027H32.4832L30.5676 42.1011H31.4656L31.1664 43.0269H27.3355L30.3285 34.2058H29.191L29.55 33.1711H33.1414L34.159 34.2601H35.7152L36.673 33.1711H39.0074L39.9652 34.2601H41.6414L42.5992 33.2254H45.4723L46.2504 34.2601L43.7961 42.1558H44.8137L44.3348 43.0273ZM40.384 42.9183H44.275L44.5742 42.1558H43.5566L46.0109 34.1515L45.2926 33.1715H42.4793L41.5215 34.2062H39.7855L38.8277 33.1172H36.6129L35.6551 34.2062H33.9789L32.9613 33.1172H29.4895L29.1902 33.9883H30.3277L27.3348 42.8094H30.9863L31.2258 42.0468H30.3277L32.3031 35.7847H36.134L33.9191 42.809H37.4508L37.75 42.1011H36.9121L38.9473 35.7304H42.5988L40.384 42.9183ZM27.5145 30.7758H25.3594L24.8207 30.2312L25.5391 28.2711L26.2574 27.6722H28.2328L28.7117 28.1625L28.1133 30.1773L27.5148 30.7761L27.5145 30.7758ZM25.4195 30.7215H27.4547L27.9934 30.1769L28.5918 28.2168L28.1727 27.7812H26.257L25.5984 28.3258L24.9398 30.1769L25.4187 30.7215H25.4195Z" fill="black"/>
</svg>
