<svg width="50" height="50" viewBox="0 0 50 50" fill="none" xmlns="http://www.w3.org/2000/svg">
<g clip-path="url(#clip0_2409_124)">
<mask id="mask0_2409_124" style="mask-type:alpha" maskUnits="userSpaceOnUse" x="-1" y="0" width="51" height="50">
<path fill-rule="evenodd" clip-rule="evenodd" d="M35.4558 49.6586C35.8536 49.8137 36.2792 49.8852 36.7059 49.8688C37.1326 49.8524 37.5514 49.7484 37.9362 49.5633L48.2304 44.6098C48.7605 44.3546 49.2078 43.9549 49.5209 43.4567C49.8339 42.9585 49.9999 42.3821 49.9999 41.7937V8.20664C50 7.61821 49.834 7.0417 49.521 6.54345C49.2079 6.0452 48.7606 5.64546 48.2304 5.39023L37.9362 0.437495C37.3545 0.157614 36.7002 0.0654642 36.0639 0.173798C35.4275 0.282133 34.8406 0.585593 34.3843 1.04218L14.6772 19.0211L6.09365 12.5051C5.70638 12.2112 5.2285 12.0621 4.74284 12.0837C4.25719 12.1052 3.79438 12.296 3.43466 12.623L0.681537 15.1273C0.466985 15.3225 0.295526 15.5603 0.178128 15.8254C0.0607297 16.0906 -2.29342e-05 16.3774 -0.000243538 16.6674C-0.000464141 16.9575 0.0598521 17.2443 0.176847 17.5097C0.293841 17.7751 0.464938 18.0131 0.679193 18.2086L8.12333 25L0.679583 31.7918C0.465446 31.9873 0.294451 32.2253 0.177529 32.4906C0.0606073 32.756 0.000330182 33.0428 0.000550762 33.3327C0.000771343 33.6227 0.0614847 33.9094 0.17881 34.1746C0.296136 34.4397 0.467492 34.6775 0.681927 34.8727L3.43505 37.3769C3.79473 37.704 4.25751 37.8949 4.74316 37.9165C5.22882 37.9381 5.70673 37.7891 6.09404 37.4953L14.6776 30.9797L34.3847 48.9582C34.6897 49.2631 35.0541 49.5016 35.4558 49.6586ZM37.5073 13.6496L22.5546 25L37.5077 36.3508L37.5073 13.6496Z" fill="white"/>
</mask>
<g mask="url(#mask0_2409_124)">
<path d="M48.2307 5.39845L37.9284 0.437514C37.3465 0.157275 36.6919 0.0649301 36.0552 0.173272C35.4185 0.281614 34.8313 0.58528 34.3749 1.0422L0.649084 31.7918C0.434786 31.9872 0.263647 32.2252 0.146621 32.4905C0.0295959 32.7559 -0.0307376 33.0428 -0.030517 33.3328C-0.0302964 33.6228 0.0304735 33.9095 0.147903 34.1747C0.265332 34.4399 0.436833 34.6776 0.651428 34.8727L3.40612 37.377C3.7659 37.7044 4.22899 37.8955 4.71499 37.9172C5.20099 37.9388 5.67922 37.7895 6.06666 37.4953L46.6803 6.68478C48.0428 5.65119 49.9999 6.62306 49.9999 8.33322V8.21369C49.9999 7.62543 49.8339 7.04912 49.5209 6.55102C49.2079 6.05293 48.7607 5.65368 48.2307 5.39845Z" fill="#0065A9"/>
<g filter="url(#filter0_d_2409_124)">
<path d="M48.2307 44.602L37.9284 49.5621C37.3466 49.8425 36.692 49.9349 36.0553 49.8267C35.4187 49.7185 34.8314 49.415 34.3749 48.9582L0.649084 18.2082C0.434786 18.0128 0.263647 17.7748 0.146621 17.5095C0.0295959 17.2441 -0.0307376 16.9573 -0.030517 16.6673C-0.0302964 16.3773 0.0304735 16.0905 0.147903 15.8253C0.265332 15.5602 0.436833 15.3224 0.651428 15.1274L3.40612 12.6231C3.7659 12.2956 4.22899 12.1045 4.71499 12.0829C5.20099 12.0612 5.67922 12.2105 6.06666 12.5047L46.6803 43.3149C48.0428 44.3488 49.9999 43.377 49.9999 41.6668V41.7863C49.9999 42.3746 49.8339 42.9509 49.5209 43.449C49.2079 43.9471 48.7607 44.3467 48.2307 44.602Z" fill="#007ACC"/>
</g>
<g filter="url(#filter1_d_2409_124)">
<path d="M37.9289 49.5633C37.3468 49.843 36.6922 49.935 36.0556 49.8266C35.419 49.7182 34.8317 49.4148 34.375 48.9582C35.5281 50.1113 37.5 49.2945 37.5 47.6637V2.33592C37.5 0.705058 35.5281 -0.111738 34.375 1.04178C34.8317 0.58521 35.419 0.281765 36.0556 0.173374C36.6922 0.0649824 37.3468 0.156996 37.9289 0.436699L48.2293 5.39061C48.7597 5.64567 49.2073 6.04534 49.5206 6.5436C49.8338 7.04186 50 7.61846 50 8.20701V41.7937C50 42.3823 49.8338 42.9589 49.5206 43.4571C49.2073 43.9554 48.7597 44.3551 48.2293 44.6101L37.9289 49.5633Z" fill="#1F9CF0"/>
</g>
<path opacity="0.25" fill-rule="evenodd" clip-rule="evenodd" d="M35.4257 49.6586C35.8235 49.8136 36.249 49.8851 36.6756 49.8688C37.1023 49.8524 37.521 49.7484 37.9058 49.5633L48.1999 44.6098C48.7301 44.3545 49.1775 43.9548 49.4905 43.4565C49.8035 42.9583 49.9696 42.3818 49.9694 41.7934V8.20664C49.9696 7.61821 49.8035 7.0417 49.4905 6.54345C49.1775 6.0452 48.7301 5.64546 48.1999 5.39023L37.9058 0.437495C37.3241 0.157614 36.6698 0.0654642 36.0334 0.173798C35.3971 0.282133 34.8101 0.585593 34.3538 1.04218L14.6468 19.0211L6.06318 12.5055C5.67592 12.2116 5.19803 12.0625 4.71238 12.0841C4.22673 12.1056 3.76392 12.2964 3.4042 12.6234L0.651074 15.1277C0.436576 15.3229 0.265165 15.5607 0.147801 15.8259C0.0304374 16.0911 -0.0302964 16.3778 -0.030517 16.6678C-0.0307376 16.9578 0.0295599 17.2447 0.14652 17.5101C0.26348 17.7754 0.434529 18.0135 0.64873 18.209L8.09287 25L0.649121 31.7914C0.434866 31.9869 0.263769 32.2249 0.146775 32.4903C0.0297799 32.7556 -0.0305363 33.0425 -0.0303157 33.3325C-0.0300951 33.6226 0.0306575 33.9093 0.148056 34.1745C0.265454 34.4397 0.436913 34.6775 0.651464 34.8726L3.40459 37.3769C3.76426 37.704 4.22704 37.8949 4.7127 37.9165C5.19835 37.9381 5.67626 37.7891 6.06357 37.4953L14.6476 30.9793L34.3546 48.9582C34.6595 49.263 35.0242 49.5015 35.4257 49.6586ZM37.4772 13.6492L22.5241 25L37.4772 36.3504V13.6492Z" fill="url(#paint0_linear_2409_124)"/>
</g>
</g>
<defs>
<filter id="filter0_d_2409_124" x="-1.07227" y="11.0391" width="52.1138" height="39.8734" filterUnits="userSpaceOnUse" color-interpolation-filters="sRGB">
<feFlood flood-opacity="0" result="BackgroundImageFix"/>
<feColorMatrix in="SourceAlpha" type="matrix" values="0 0 0 0 0 0 0 0 0 0 0 0 0 0 0 0 0 0 127 0" result="hardAlpha"/>
<feOffset/>
<feGaussianBlur stdDeviation="0.520875"/>
<feColorMatrix type="matrix" values="0 0 0 0 0 0 0 0 0 0 0 0 0 0 0 0 0 0 0.25 0"/>
<feBlend mode="overlay" in2="BackgroundImageFix" result="effect1_dropShadow_2409_124"/>
<feBlend mode="normal" in="SourceGraphic" in2="effect1_dropShadow_2409_124" result="shape"/>
</filter>
<filter id="filter1_d_2409_124" x="33.3333" y="-0.9126" width="17.7085" height="51.8252" filterUnits="userSpaceOnUse" color-interpolation-filters="sRGB">
<feFlood flood-opacity="0" result="BackgroundImageFix"/>
<feColorMatrix in="SourceAlpha" type="matrix" values="0 0 0 0 0 0 0 0 0 0 0 0 0 0 0 0 0 0 127 0" result="hardAlpha"/>
<feOffset/>
<feGaussianBlur stdDeviation="0.520875"/>
<feColorMatrix type="matrix" values="0 0 0 0 0 0 0 0 0 0 0 0 0 0 0 0 0 0 0.25 0"/>
<feBlend mode="overlay" in2="BackgroundImageFix" result="effect1_dropShadow_2409_124"/>
<feBlend mode="normal" in="SourceGraphic" in2="effect1_dropShadow_2409_124" result="shape"/>
</filter>
<linearGradient id="paint0_linear_2409_124" x1="24.9694" y1="0.128901" x2="24.9694" y2="49.8711" gradientUnits="userSpaceOnUse">
<stop stop-color="white"/>
<stop offset="1" stop-color="white" stop-opacity="0"/>
</linearGradient>
<clipPath id="clip0_2409_124">
<rect width="50" height="50" fill="white"/>
</clipPath>
</defs>
</svg>
