<svg width="50" height="50" viewBox="0 0 50 50" fill="none" xmlns="http://www.w3.org/2000/svg">
<g clip-path="url(#clip0_2420_185)">
<path d="M38.2812 0H11.7188C5.24666 0 0 5.24666 0 11.7188V38.2812C0 44.7533 5.24666 50 11.7188 50H38.2812C44.7533 50 50 44.7533 50 38.2812V11.7188C50 5.24666 44.7533 0 38.2812 0Z" fill="#5865F2"/>
<mask id="mask0_2420_185" style="mask-type:luminance" maskUnits="userSpaceOnUse" x="5" y="9" width="40" height="32">
<path d="M5.46875 9.96094H44.5312V40.2207H5.46875V9.96094Z" fill="white"/>
</mask>
<g mask="url(#mask0_2420_185)">
<path d="M38.5366 12.6557C36.004 11.4933 33.3314 10.6643 30.5856 10.1895C30.5607 10.1849 30.5349 10.1883 30.512 10.1992C30.4891 10.21 30.4702 10.2278 30.4579 10.25C30.1145 10.8606 29.7341 11.6574 29.4678 12.2836C26.4653 11.834 23.4784 11.834 20.5376 12.2836C20.2712 11.6434 19.877 10.8606 19.5321 10.25C19.5194 10.2282 19.5004 10.2107 19.4775 10.1999C19.4547 10.1891 19.4291 10.1854 19.4042 10.1895C16.6581 10.6633 13.9854 11.4923 11.4532 12.6557C11.4316 12.6651 11.4134 12.6807 11.4009 12.7006C6.3368 20.2662 4.94969 27.6459 5.63015 34.9342C5.6343 34.9702 5.65257 35.0031 5.68094 35.0256C9.02195 37.4793 12.2585 38.969 15.4348 39.9563C15.4596 39.9636 15.4859 39.9632 15.5104 39.9552C15.5349 39.9472 15.5564 39.9319 15.5719 39.9113C16.3233 38.8852 16.993 37.8033 17.5675 36.6656C17.5754 36.6501 17.5799 36.633 17.5807 36.6155C17.5815 36.5981 17.5787 36.5806 17.5722 36.5644C17.5658 36.5481 17.5561 36.5334 17.5436 36.5212C17.531 36.509 17.5161 36.4996 17.4997 36.4936C16.4372 36.0904 15.4257 35.5992 14.4526 35.0412C14.4349 35.0308 14.42 35.0161 14.4093 34.9986C14.3986 34.9811 14.3923 34.9611 14.3911 34.9406C14.3899 34.9201 14.3937 34.8995 14.4023 34.8809C14.4109 34.8622 14.4239 34.8459 14.4403 34.8334C14.6456 34.68 14.8473 34.5219 15.0454 34.3592C15.0627 34.3449 15.0837 34.3357 15.106 34.3327C15.1283 34.3296 15.151 34.3329 15.1716 34.342C21.5645 37.2608 28.4854 37.2608 34.8028 34.342C34.8234 34.3323 34.8464 34.3286 34.869 34.3314C34.8917 34.3342 34.913 34.3432 34.9307 34.3576C35.129 34.5212 35.3313 34.6798 35.5374 34.8334C35.5538 34.8458 35.567 34.8619 35.5757 34.8806C35.5844 34.8992 35.5884 34.9197 35.5873 34.9402C35.5863 34.9607 35.5802 34.9807 35.5696 34.9983C35.559 35.0159 35.5443 35.0307 35.5266 35.0412C34.553 35.6097 33.5332 36.095 32.478 36.492C32.4617 36.4983 32.4468 36.508 32.4345 36.5204C32.4221 36.5328 32.4125 36.5477 32.4062 36.5641C32.4 36.5805 32.3973 36.598 32.3982 36.6155C32.3992 36.6329 32.4038 36.65 32.4118 36.6656C32.9961 37.7943 33.6625 38.8786 34.4055 39.9098C34.4207 39.9308 34.4421 39.9466 34.4667 39.9549C34.4912 39.9632 34.5178 39.9637 34.5427 39.9563C37.7344 38.969 40.971 37.4793 44.3122 35.0256C44.3265 35.015 44.3384 35.0016 44.3471 34.9861C44.3559 34.9706 44.3613 34.9535 44.363 34.9358C45.1774 26.5098 42.9987 19.1904 38.5874 12.7022C38.5767 12.681 38.5586 12.6645 38.5366 12.6557ZM18.5221 30.4965C16.5973 30.4965 15.0114 28.7295 15.0114 26.5594C15.0114 24.3893 16.5667 22.6223 18.5221 22.6223C20.4928 22.6223 22.0634 24.4049 22.0325 26.5594C22.0325 28.7295 20.4774 30.4965 18.5221 30.4965ZM31.5018 30.4965C29.577 30.4965 27.9913 28.7295 27.9913 26.5594C27.9913 24.3893 29.5464 22.6223 31.5018 22.6223C33.4725 22.6223 35.043 24.4049 35.0124 26.5594C35.0124 28.7295 33.4725 30.4965 31.5018 30.4965Z" fill="white"/>
</g>
</g>
<defs>
<clipPath id="clip0_2420_185">
<rect width="50" height="50" fill="white"/>
</clipPath>
</defs>
</svg>
