<svg width="50" height="50" viewBox="0 0 50 50" fill="none" xmlns="http://www.w3.org/2000/svg">
<g clip-path="url(#clip0_2424_193)">
<path d="M38.2812 0H11.7188C5.24666 0 0 5.24666 0 11.7188V38.2812C0 44.7533 5.24666 50 11.7188 50H38.2812C44.7533 50 50 44.7533 50 38.2812V11.7188C50 5.24666 44.7533 0 38.2812 0Z" fill="#242938"/>
<path d="M25.0002 5.85938C14.2146 5.85938 5.46875 14.6035 5.46875 25.3908C5.46875 34.0203 11.065 41.3414 18.8256 43.924C19.8016 44.1049 20.16 43.5004 20.16 42.9846C20.16 42.5187 20.1418 40.9803 20.1334 39.3482C14.6998 40.5297 13.5533 37.0438 13.5533 37.0438C12.6646 34.7861 11.3846 34.1859 11.3846 34.1859C9.6125 32.9736 11.5182 32.9986 11.5182 32.9986C13.4795 33.1363 14.5123 35.0113 14.5123 35.0113C16.2543 37.9973 19.0814 37.134 20.1959 36.635C20.3713 35.3725 20.8773 34.5109 21.4359 34.0232C17.0979 33.5293 12.5375 31.8545 12.5375 24.3707C12.5375 22.2383 13.3004 20.4959 14.5498 19.1281C14.3469 18.6361 13.6783 16.6496 14.7389 13.9594C14.7389 13.9594 16.3791 13.4346 20.1115 15.9613C21.6695 15.5287 23.3402 15.3117 25.0002 15.3043C26.66 15.3117 28.3322 15.5287 29.893 15.9615C33.6209 13.4344 35.2588 13.9596 35.2588 13.9596C36.3219 16.6496 35.6531 18.6363 35.4502 19.1281C36.7025 20.4959 37.4604 22.2383 37.4604 24.3707C37.4604 31.8725 32.8912 33.5242 28.542 34.0076C29.2426 34.6139 29.8668 35.8023 29.8668 37.6246C29.8668 40.2379 29.8441 42.3412 29.8441 42.9846C29.8441 43.5043 30.1957 44.1133 31.1857 43.9215C38.942 41.3359 44.5312 34.0174 44.5312 25.3908C44.5312 14.6037 35.7865 5.85938 25.0002 5.85938ZM12.784 33.6822C12.741 33.7793 12.5883 33.8084 12.4492 33.7418C12.3074 33.6781 12.2279 33.5457 12.2738 33.4484C12.3158 33.3484 12.4689 33.3207 12.6102 33.3877C12.7521 33.4514 12.833 33.585 12.784 33.6822ZM13.7447 34.5395C13.6516 34.626 13.4693 34.5857 13.3459 34.4492C13.2182 34.3131 13.1941 34.1311 13.2887 34.0434C13.3846 33.957 13.5613 33.9975 13.6893 34.1336C13.817 34.2715 13.842 34.4521 13.7447 34.5395ZM14.4037 35.6363C14.284 35.7195 14.0883 35.6416 13.9674 35.4678C13.8477 35.2941 13.8477 35.0859 13.9699 35.0023C14.0912 34.9189 14.284 34.9939 14.4066 35.1664C14.526 35.343 14.526 35.5514 14.4037 35.6363ZM15.5184 36.9066C15.4113 37.0246 15.1834 36.993 15.0164 36.8318C14.8457 36.6744 14.798 36.451 14.9055 36.3328C15.0139 36.2145 15.2432 36.2479 15.4113 36.4076C15.5809 36.5646 15.6326 36.7898 15.5184 36.9066ZM16.959 37.3354C16.9117 37.4885 16.6922 37.558 16.4709 37.493C16.2502 37.426 16.1055 37.2469 16.1502 37.0922C16.1961 36.9383 16.4166 36.8658 16.6395 36.9354C16.8602 37.002 17.0049 37.1799 16.959 37.3354ZM18.5984 37.5174C18.6039 37.6783 18.4164 37.8119 18.1842 37.8148C17.9506 37.8201 17.7617 37.6896 17.7592 37.5313C17.7592 37.3686 17.9426 37.2363 18.176 37.2324C18.4084 37.2279 18.5984 37.3572 18.5984 37.5174ZM20.209 37.4557C20.2369 37.6127 20.0756 37.7742 19.8449 37.8172C19.6182 37.8586 19.4082 37.7615 19.3795 37.6057C19.3514 37.4445 19.5156 37.2832 19.742 37.2414C19.973 37.2014 20.1797 37.2959 20.209 37.4557Z" fill="white"/>
</g>
<defs>
<clipPath id="clip0_2424_193">
<rect width="50" height="50" fill="white"/>
</clipPath>
</defs>
</svg>
